<?xml version="1.0" encoding="UTF-8" standalone="no"?>
<!-- Generator: Adobe Illustrator 16.0.0, SVG Export Plug-In . SVG Version: 6.00 Build 0)  -->

<svg
   xmlns:dc="http://purl.org/dc/elements/1.1/"
   xmlns:cc="http://creativecommons.org/ns#"
   xmlns:rdf="http://www.w3.org/1999/02/22-rdf-syntax-ns#"
   xmlns:svg="http://www.w3.org/2000/svg"
   xmlns="http://www.w3.org/2000/svg"
   xmlns:sodipodi="http://sodipodi.sourceforge.net/DTD/sodipodi-0.dtd"
   xmlns:inkscape="http://www.inkscape.org/namespaces/inkscape"
   version="1.1"
   id="Layer_1"
   x="0px"
   y="0px"
   width="140px"
   height="32px"
   viewBox="0 0 140 32"
   enable-background="new 0 0 140 32"
   xml:space="preserve"
   inkscape:version="0.91 r13725"
   sodipodi:docname="logo.svg"><metadata
     id="metadata29"><rdf:RDF><cc:Work
         rdf:about=""><dc:format>image/svg+xml</dc:format><dc:type
           rdf:resource="http://purl.org/dc/dcmitype/StillImage" /></cc:Work></rdf:RDF></metadata><defs
     id="defs27" /><sodipodi:namedview
     pagecolor="#ffffff"
     bordercolor="#666666"
     borderopacity="1"
     objecttolerance="10"
     gridtolerance="10"
     guidetolerance="10"
     inkscape:pageopacity="0"
     inkscape:pageshadow="2"
     inkscape:window-width="1871"
     inkscape:window-height="1056"
     id="namedview25"
     showgrid="false"
     inkscape:zoom="3.8571429"
     inkscape:cx="81.410879"
     inkscape:cy="-12.858396"
     inkscape:window-x="49"
     inkscape:window-y="24"
     inkscape:window-maximized="1"
     inkscape:current-layer="Layer_1" /><g
     id="g3"
     transform="translate(4.9259266,63.518519)"><g
       id="g5"><path
         d="M 9.577,7.14 C 8.929,7.673 8.605,8.378 8.605,9.256 c 0,0.878 0.396,1.575 1.187,2.094 0.792,0.518 2.619,1.13 5.483,1.835 2.864,0.706 5.088,1.764 6.671,3.173 1.583,1.41 2.375,3.469 2.375,6.174 0,2.707 -1.015,4.901 -3.043,6.585 -2.029,1.684 -4.7,2.525 -8.009,2.525 -4.778,0 -9.082,-1.771 -12.91,-5.311 l 4.015,-4.922 c 3.253,2.85 6.261,4.273 9.024,4.273 1.237,0 2.209,-0.265 2.915,-0.798 0.705,-0.532 1.057,-1.253 1.057,-2.159 0,-0.906 -0.374,-1.626 -1.122,-2.159 C 15.499,20.035 14.017,19.495 11.801,18.947 8.289,18.113 5.72,17.026 4.094,15.688 2.468,14.35 1.655,12.249 1.655,9.385 1.655,6.521 2.684,4.312 4.742,2.758 6.8,1.203 9.368,0.426 12.449,0.426 c 2.014,0 4.029,0.345 6.044,1.036 2.014,0.691 3.771,1.67 5.268,2.936 L 20.35,9.32 C 17.73,7.334 15.024,6.341 12.233,6.341 11.11,6.342 10.224,6.608 9.577,7.14 Z"
         id="path7"
         inkscape:connector-curvature="0"
         style="fill:#ffffff" /><path
         d="m 51.176,1.117 6.736,0 0,30.18 -6.736,0 -14.378,-18.911 0,18.911 -6.735,0 0,-30.18 6.304,0 14.809,19.43 0,-19.43 z"
         id="path9"
         inkscape:connector-curvature="0"
         style="fill:#ffffff" /></g><g
       id="g11"><g
         id="g13"><path
           d="m 104.038,18.475 5.354,-17.357 7.037,0 5.312,17.357 6.001,-17.357 7.297,0 -10.535,30.18 -5.009,0 -6.604,-20.983 -6.563,20.983 -5.009,0 -10.536,-30.181 7.296,0 5.959,17.358 z"
           id="path15"
           inkscape:connector-curvature="0"
           style="fill:#ffffff" /></g><g
         id="g17"><path
           stroke-miterlimit="10"
           d="m 82.297,17.837 c -1.738,1.698 -3.881,2.548 -6.423,2.548 -2.544,0 -4.687,-0.85 -6.425,-2.548 -1.739,-1.698 -2.609,-3.811 -2.609,-6.338 0,-2.527 0.87,-4.64 2.609,-6.338 1.739,-1.699 3.881,-2.548 6.425,-2.548 2.542,0 4.685,0.849 6.423,2.548 1.739,1.698 2.609,3.811 2.609,6.338 0,2.527 -0.87,4.64 -2.609,6.338 z M 80.993,11.511 C 80.993,9.977 80.501,8.668 79.516,7.585 78.531,6.502 77.321,5.96 75.884,5.96 c -1.436,0 -2.646,0.542 -3.629,1.625 -0.985,1.083 -1.478,2.392 -1.478,3.926 0,1.534 0.492,2.839 1.478,3.914 0.983,1.075 2.193,1.612 3.629,1.612 1.437,0 2.646,-0.538 3.632,-1.612 0.985,-1.075 1.477,-2.38 1.477,-3.914 z"
           id="path19"
           inkscape:connector-curvature="0"
           style="fill:#ffffff;stroke:#ffffff;stroke-width:2;stroke-miterlimit:10" /></g><g
         id="g21"><path
           stroke-miterlimit="10"
           d="m 85.055,28.214 0,1.501 -17.205,0 0,-1.501 17.205,0 z"
           id="path23"
           inkscape:connector-curvature="0"
           style="fill:#ffffff;stroke:#ffffff;stroke-miterlimit:10" /></g></g></g><text
     xml:space="preserve"
     style="font-style:normal;font-weight:normal;font-size:39.49321747px;line-height:125%;font-family:sans-serif;letter-spacing:0px;word-spacing:0px;fill:#ffffff;fill-opacity:1;stroke:none;stroke-width:1px;stroke-linecap:butt;stroke-linejoin:miter;stroke-opacity:1"
     x="-1.5367799"
     y="23.206203"
     id="text4159"
     sodipodi:linespacing="125%"><tspan
       sodipodi:role="line"
       id="tspan4161"
       x="-1.5367799"
       y="23.206203"
       style="font-style:normal;font-variant:normal;font-weight:normal;font-stretch:normal;font-size:29.61991501px;font-family:UnGungseo;-inkscape-font-specification:UnGungseo;fill:#ffffff">BasePaper</tspan></text>
</svg>